<svg preserveAspectRatio="none" width="100%" height="100%" overflow="visible" style="display: block;" viewBox="0 0 21 18" fill="none" xmlns="http://www.w3.org/2000/svg">
<g id="Frame">
<g clip-path="url(#clip0_0_28)">
<path id="Vector" d="M10.125 1.125C7.28438 1.125 5.00977 2.41875 3.35391 3.95859C1.70859 5.48438 0.608203 7.3125 0.0878906 8.56758C-0.028125 8.84531 -0.028125 9.15469 0.0878906 9.43242C0.608203 10.6875 1.70859 12.5156 3.35391 14.0414C5.00977 15.5812 7.28438 16.875 10.125 16.875C12.9656 16.875 15.2402 15.5812 16.8961 14.0414C18.5414 12.5121 19.6418 10.6875 20.1656 9.43242C20.2816 9.15469 20.2816 8.84531 20.1656 8.56758C19.6418 7.3125 18.5414 5.48438 16.8961 3.95859C15.2402 2.41875 12.9656 1.125 10.125 1.125ZM5.0625 9C5.0625 7.65734 5.59587 6.36967 6.54527 5.42027C7.49467 4.47087 8.78234 3.9375 10.125 3.9375C11.4677 3.9375 12.7553 4.47087 13.7047 5.42027C14.6541 6.36967 15.1875 7.65734 15.1875 9C15.1875 10.3427 14.6541 11.6303 13.7047 12.5797C12.7553 13.5291 11.4677 14.0625 10.125 14.0625C8.78234 14.0625 7.49467 13.5291 6.54527 12.5797C5.59587 11.6303 5.0625 10.3427 5.0625 9ZM10.125 6.75C10.125 7.99102 9.11602 9 7.875 9C7.62539 9 7.38633 8.95781 7.16133 8.88398C6.96797 8.8207 6.74297 8.94023 6.75 9.14414C6.76055 9.38672 6.7957 9.6293 6.8625 9.87187C7.34414 11.6719 9.19687 12.7406 10.9969 12.259C12.7969 11.7773 13.8656 9.92461 13.384 8.12461C12.9938 6.66563 11.7035 5.68477 10.2691 5.625C10.0652 5.61797 9.9457 5.83945 10.009 6.03633C10.0828 6.26133 10.125 6.50039 10.125 6.75Z" fill="var(--fill-0, #F7F4F0)"/>
</g>
</g>
<defs>
<clipPath id="clip0_0_28">
<path d="M0 0H20.25V18H0V0Z" fill="white"/>
</clipPath>
</defs>
</svg>
