<svg preserveAspectRatio="none" width="100%" height="100%" overflow="visible" style="display: block;" viewBox="0 0 18 18" fill="none" xmlns="http://www.w3.org/2000/svg">
<g id="Frame">
<g clip-path="url(#clip0_0_17)">
<path id="Vector" d="M9 18C11.3869 18 13.6761 17.0518 15.364 15.364C17.0518 13.6761 18 11.3869 18 9C18 6.61305 17.0518 4.32387 15.364 2.63604C13.6761 0.948212 11.3869 0 9 0C6.61305 0 4.32387 0.948212 2.63604 2.63604C0.948212 4.32387 0 6.61305 0 9C0 11.3869 0.948212 13.6761 2.63604 15.364C4.32387 17.0518 6.61305 18 9 18ZM10.7824 11.4293L5.70937 13.3805C5.02734 13.6441 4.35586 12.9727 4.61953 12.2906L6.5707 7.21758C6.68672 6.91875 6.91875 6.68672 7.21758 6.5707L12.2906 4.61953C12.9727 4.35586 13.6441 5.02734 13.3805 5.70937L11.4293 10.7824C11.3168 11.0813 11.0813 11.3133 10.7824 11.4293ZM10.125 9C10.125 8.70163 10.0065 8.41548 9.79549 8.20451C9.58452 7.99353 9.29837 7.875 9 7.875C8.70163 7.875 8.41548 7.99353 8.20451 8.20451C7.99353 8.41548 7.875 8.70163 7.875 9C7.875 9.29837 7.99353 9.58452 8.20451 9.79549C8.41548 10.0065 8.70163 10.125 9 10.125C9.29837 10.125 9.58452 10.0065 9.79549 9.79549C10.0065 9.58452 10.125 9.29837 10.125 9Z" fill="var(--fill-0, #F7F4F0)"/>
</g>
</g>
<defs>
<clipPath id="clip0_0_17">
<path d="M0 0H18V18H0V0Z" fill="white"/>
</clipPath>
</defs>
</svg>
