<svg preserveAspectRatio="none" width="100%" height="100%" overflow="visible" style="display: block;" viewBox="0 0 20 20" fill="none" xmlns="http://www.w3.org/2000/svg">
<g id="Frame">
<g clip-path="url(#clip0_0_6)">
<path id="Vector" d="M6.44141 0.960938C6.14062 0.234375 5.34766 -0.152344 4.58984 0.0546875L1.15234 0.992188C0.472656 1.17969 0 1.79687 0 2.5C0 12.1641 7.83594 20 17.5 20C18.2031 20 18.8203 19.5273 19.0078 18.8477L19.9453 15.4102C20.1523 14.6523 19.7656 13.8594 19.0391 13.5586L15.2891 11.9961C14.6523 11.7305 13.9141 11.9141 13.4805 12.4492L11.9023 14.375C9.15234 13.0742 6.92578 10.8477 5.625 8.09766L7.55078 6.52344C8.08594 6.08594 8.26953 5.35156 8.00391 4.71484L6.44141 0.964844V0.960938Z" fill="var(--fill-0, #1B2851)"/>
</g>
</g>
<defs>
<clipPath id="clip0_0_6">
<path d="M0 0H20V20H0V0Z" fill="white"/>
</clipPath>
</defs>
</svg>
