<svg preserveAspectRatio="none" width="100%" height="100%" overflow="visible" style="display: block;" viewBox="0 0 14 16" fill="none" xmlns="http://www.w3.org/2000/svg">
<g id="Frame">
<g clip-path="url(#clip0_0_8)">
<path id="Vector" d="M3 0C1.34375 0 0 1.34375 0 3V11C0 12.5 1.1 13.7406 2.53437 13.9656L1.09687 15.4031C0.878125 15.6219 1.03438 16 1.34375 16H2.58437C2.85 16 3.10313 15.8938 3.29063 15.7063L5 14H9L10.7063 15.7063C10.8938 15.8938 11.1469 16 11.4125 16H12.6562C12.9688 16 13.125 15.6219 12.9031 15.4031L11.4656 13.9656C12.9031 13.7437 14 12.5 14 11V3C14 1.34375 12.6562 0 11 0H3ZM2 4C2 3.44687 2.44687 3 3 3H5.5C6.05313 3 6.5 3.44687 6.5 4V7C6.5 7.55313 6.05313 8 5.5 8H3C2.44687 8 2 7.55313 2 7V4ZM8.5 3H11C11.5531 3 12 3.44687 12 4V7C12 7.55313 11.5531 8 11 8H8.5C7.94687 8 7.5 7.55313 7.5 7V4C7.5 3.44687 7.94687 3 8.5 3ZM2 11C2 10.7348 2.10536 10.4804 2.29289 10.2929C2.48043 10.1054 2.73478 10 3 10C3.26522 10 3.51957 10.1054 3.70711 10.2929C3.89464 10.4804 4 10.7348 4 11C4 11.2652 3.89464 11.5196 3.70711 11.7071C3.51957 11.8946 3.26522 12 3 12C2.73478 12 2.48043 11.8946 2.29289 11.7071C2.10536 11.5196 2 11.2652 2 11ZM11 10C11.2652 10 11.5196 10.1054 11.7071 10.2929C11.8946 10.4804 12 10.7348 12 11C12 11.2652 11.8946 11.5196 11.7071 11.7071C11.5196 11.8946 11.2652 12 11 12C10.7348 12 10.4804 11.8946 10.2929 11.7071C10.1054 11.5196 10 11.2652 10 11C10 10.7348 10.1054 10.4804 10.2929 10.2929C10.4804 10.1054 10.7348 10 11 10Z" fill="var(--fill-0, #1B2851)"/>
</g>
</g>
<defs>
<clipPath id="clip0_0_8">
<path d="M0 0H14V16H0V0Z" fill="white"/>
</clipPath>
</defs>
</svg>
