<svg preserveAspectRatio="none" width="100%" height="100%" overflow="visible" style="display: block;" viewBox="0 0 2404 1741" fill="none" xmlns="http://www.w3.org/2000/svg">
<g id="Vector">
<path d="M2349.43 369.589C2317.61 410.049 2329.97 469.159 2350.19 516.489C2356.97 532.339 2364.62 549.069 2361.77 566.069C2358.28 586.849 2339.77 602.069 2320.25 610.069C2284.75 624.749 2242.25 621.249 2209.64 600.959C2181.45 583.419 2161.26 554.899 2132.59 538.159C2084.59 510.159 2023.53 520.729 1971.43 540.019C1934.57 553.669 1894.27 571.429 1857.64 557.159C1831.87 547.159 1814.05 522.689 1804.34 496.789C1799.65 484.279 1796.25 470.789 1787.34 460.789C1782.02 454.899 1775.08 450.709 1767.96 447.189C1702.96 414.979 1620.96 432.189 1557.88 396.509C1515.27 372.389 1487.99 326.879 1475.88 279.429C1463.77 231.979 1465.21 182.219 1468.28 133.359C1470.46 98.6293 1474.37 61.5593 1496.56 34.7493C1520.02 6.50935 1560.31 -4.03065 1596.77 1.35935C1633.23 6.74935 1666.19 25.9593 1695.22 48.5793C1731.51 76.8493 1765.16 112.059 1809.72 123.519C1840.06 131.319 1871.98 127.049 1903.28 125.579C1955.6 123.109 2007.93 128.579 2059.96 134.579C2109.77 140.339 2159.96 146.679 2207.39 162.879C2240.97 174.349 2267.89 195.159 2299.6 209.699C2320.27 219.179 2342.81 221.799 2362.37 233.869C2386.48 248.739 2408.57 274.609 2402.37 304.869C2396.48 333.679 2366.33 348.069 2349.43 369.589Z" fill="var(--fill-0, #EFF4FB)"/>
<path d="M694.01 1553.58C645.24 1570.05 623.251 1626.29 614.286 1676.97C611.291 1693.95 608.543 1712.14 596.857 1724.81C582.568 1740.29 558.748 1742.91 538.031 1738.93C500.283 1731.8 466.621 1705.62 450.422 1670.79C436.419 1640.69 435.12 1605.77 420.278 1576.07C395.414 1526.38 338.518 1501.82 284.352 1489.47C246.029 1480.73 202.579 1473.55 179.722 1441.57C163.62 1419.1 162.089 1388.87 168.129 1361.88C171.047 1348.84 175.58 1335.68 173.592 1322.44C172.36 1314.6 168.843 1307.29 164.808 1300.45C128.017 1237.93 49.9597 1207.48 16.6735 1143.11C-5.80084 1099.61 -3.74115 1046.59 12.0787 1000.24C27.8985 953.895 56.3247 913.029 85.6231 873.807C106.447 845.927 129.999 817.034 163.24 806.73C198.327 795.924 237.82 809.141 265.392 833.599C292.965 858.056 310.047 892.167 321.974 926.983C336.888 970.5 345.795 1018.38 376.827 1052.35C397.958 1075.48 427.014 1089.37 454.02 1105.26C499.168 1131.81 539.982 1165.02 580.254 1198.5C618.799 1230.57 657.345 1263.34 688.187 1302.84C710.022 1330.81 721.173 1362.96 739.764 1392.48C751.881 1411.72 769.316 1426.25 779.087 1447.05C791.135 1472.69 795.475 1506.43 773.731 1528.37C753.04 1549.26 719.93 1544.81 694.01 1553.58Z" fill="var(--fill-0, #EFF4FB)"/>
</g>
</svg>
