<svg preserveAspectRatio="none" width="100%" height="100%" overflow="visible" style="display: block;" viewBox="0 0 2576 3290" fill="none" xmlns="http://www.w3.org/2000/svg">
<g id="Vector" opacity="0.53">
<path d="M1124.85 3055.93C1049.85 2951.56 898.535 2873.46 770.055 2823.98C727.022 2807.42 681.251 2790.57 642.277 2760.01C594.641 2722.65 571.068 2675.12 565.623 2637.76C555.404 2569.6 593.992 2521.42 666.054 2512.36C728.349 2504.53 811.448 2524.23 872.154 2514.52C973.726 2498.24 991.55 2404.28 981.99 2307.83C975.22 2239.59 960.979 2160.48 1021.38 2136.8C1063.77 2120.07 1135.42 2136.34 1204.77 2165.13C1238.26 2179.04 1273.21 2196.13 1303.64 2200.72C1321.62 2203.33 1336.65 2201.2 1350.19 2197.78C1473.97 2166.67 1490.64 2035.72 1621.42 2012.54C1709.82 1996.91 1838.92 2034.58 1961.93 2094.51C2084.95 2154.43 2203.93 2235.15 2319.58 2316.5C2401.78 2374.32 2488.4 2438.04 2537.31 2508.6C2588.77 2583.03 2585.61 2650.68 2546.75 2688.23C2507.89 2725.77 2438.18 2736.99 2363.04 2737.82C2269.12 2738.88 2160.35 2725.59 2101.1 2763.76C2060.77 2789.75 2048.42 2836.87 2029.76 2878.78C1998.61 2948.84 1948.29 3006.32 1896.92 3062.59C1847.69 3116.43 1796.8 3169.83 1724.09 3204.1C1672.61 3228.37 1603.33 3229.41 1545.77 3246.45C1508.25 3257.55 1485.94 3281.89 1442.96 3287.48C1390 3294.38 1311.94 3281.29 1243.37 3225.48C1178.07 3172.35 1164.75 3111.42 1124.85 3055.93Z" fill="var(--fill-0, #EFF4FB)"/>
<path d="M560.846 1046.93C485.848 942.555 334.535 864.461 206.055 814.981C163.022 798.422 117.251 781.568 78.2768 751.011C30.6412 713.652 7.06812 666.119 1.62265 628.757C-8.59604 560.601 29.9922 512.42 102.054 503.363C164.349 495.534 247.448 515.228 308.154 505.524C409.726 489.235 427.55 395.282 417.99 298.83C411.22 230.587 396.979 151.48 457.375 127.796C499.77 111.072 571.421 127.341 640.768 156.13C674.263 170.035 709.206 187.126 739.642 191.717C757.619 194.33 772.647 192.199 786.186 188.779C909.97 157.673 926.635 26.718 1057.42 3.54104C1145.82 -12.0855 1274.92 25.5831 1397.93 85.5062C1520.95 145.429 1639.93 226.145 1755.58 307.495C1837.78 365.316 1924.4 429.035 1973.31 499.596C2024.77 574.031 2021.61 641.678 1982.75 679.227C1943.89 716.775 1874.18 727.986 1799.04 728.823C1705.12 729.879 1596.35 716.595 1537.1 754.759C1496.77 780.749 1484.42 827.874 1465.76 869.776C1434.61 939.837 1384.29 997.322 1332.92 1053.59C1283.69 1107.43 1232.8 1160.83 1160.09 1195.1C1108.61 1219.37 1039.33 1220.41 981.772 1237.45C944.248 1248.55 921.941 1272.89 878.959 1278.48C825.996 1285.38 747.941 1272.29 679.366 1216.48C614.068 1163.35 600.754 1102.42 560.846 1046.93Z" fill="var(--fill-0, #EFF4FB)"/>
</g>
</svg>
