<svg preserveAspectRatio="none" width="100%" height="100%" overflow="visible" style="display: block;" viewBox="0 0 16 14" fill="none" xmlns="http://www.w3.org/2000/svg">
<g id="Frame">
<g clip-path="url(#clip0_0_12)">
<path id="Vector" d="M8.66523 0.492188C8.52031 0.191406 8.21406 0 7.87773 0C7.54141 0 7.23789 0.191406 7.09023 0.492188L5.33203 4.10977L1.40547 4.68945C1.07734 4.73867 0.803906 4.96836 0.702734 5.28281C0.601562 5.59727 0.683594 5.94453 0.91875 6.17695L3.76797 8.99609L3.09531 12.9801C3.04062 13.3082 3.17734 13.6418 3.44805 13.8359C3.71875 14.0301 4.07695 14.0547 4.37227 13.8988L7.88047 12.0258L11.3887 13.8988C11.684 14.0547 12.0422 14.0328 12.3129 13.8359C12.5836 13.6391 12.7203 13.3082 12.6656 12.9801L11.9902 8.99609L14.8395 6.17695C15.0746 5.94453 15.1594 5.59727 15.0555 5.28281C14.9516 4.96836 14.6809 4.73867 14.3527 4.68945L10.4234 4.10977L8.66523 0.492188Z" fill="var(--fill-0, #E5A663)"/>
</g>
</g>
<defs>
<clipPath id="clip0_0_12">
<path d="M0 0H15.75V14H0V0Z" fill="white"/>
</clipPath>
</defs>
</svg>
