<svg width="23" height="17" viewBox="0 0 23 17" fill="none" xmlns="http://www.w3.org/2000/svg">
<path d="M5.50345 9.32069C6.49655 9.34138 7.41724 9.83793 8.03793 10.7069C8.7931 11.7724 10.0448 12.4138 11.3793 12.4138C12.7138 12.4138 13.9655 11.7724 14.7207 10.6966C15.3414 9.82759 16.2621 9.33103 17.2552 9.31034C16.5103 8.04828 13.531 7.24138 11.3793 7.24138C9.23793 7.24138 6.24828 8.04828 5.50345 9.32069Z" fill="#3498DB"/>
<path d="M3.10345 9.31034C4.82069 9.31034 6.2069 7.92414 6.2069 6.2069C6.2069 4.48966 4.82069 3.10345 3.10345 3.10345C1.38621 3.10345 0 4.48966 0 6.2069C0 7.92414 1.38621 9.31034 3.10345 9.31034Z" fill="#3498DB"/>
<path d="M19.6552 9.31034C21.3724 9.31034 22.7586 7.92414 22.7586 6.2069C22.7586 4.48966 21.3724 3.10345 19.6552 3.10345C17.9379 3.10345 16.5517 4.48966 16.5517 6.2069C16.5517 7.92414 17.9379 9.31034 19.6552 9.31034Z" fill="#3498DB"/>
<path d="M11.3793 6.2069C13.0966 6.2069 14.4828 4.82069 14.4828 3.10345C14.4828 1.38621 13.0966 0 11.3793 0C9.66207 0 8.27586 1.38621 8.27586 3.10345C8.27586 4.82069 9.66207 6.2069 11.3793 6.2069Z" fill="#3498DB"/>
<path d="M20.6897 10.3448H17.3069C16.5103 10.3448 15.9103 10.8103 15.569 11.2966C15.5276 11.3586 14.1621 13.4483 11.3793 13.4483C9.9 13.4483 8.24483 12.7862 7.18966 11.2966C6.78621 10.7276 6.15517 10.3448 5.45172 10.3448H2.06897C0.931035 10.3448 0 11.2759 0 12.4138V16.5517H7.24138V14.2138C8.43104 15.0414 9.86897 15.5172 11.3793 15.5172C12.8897 15.5172 14.3276 15.0414 15.5172 14.2138V16.5517H22.7586V12.4138C22.7586 11.2759 21.8276 10.3448 20.6897 10.3448Z" fill="#3498DB"/>
</svg>
