<svg preserveAspectRatio="none" width="100%" height="100%" overflow="visible" style="display: block;" viewBox="0 0 14 14" fill="none" xmlns="http://www.w3.org/2000/svg">
<g id="Frame">
<path d="M14 14H0V0H14V14Z" stroke="var(--stroke-0, #E5E7EB)"/>
<path id="Vector" d="M7.68164 2.65061C8.45887 1.87338 9.56573 1.51817 10.6533 1.69944C12.296 1.97388 13.5 3.39499 13.5 5.06174V5.21995C13.5 6.2165 13.0866 7.16906 12.3574 7.84788V7.84885L7.41602 12.4612C7.30377 12.5659 7.15533 12.6252 7 12.6252C6.84467 12.6252 6.69623 12.5659 6.58398 12.4612L1.64258 7.84885V7.84788L1.50879 7.71799C0.862612 7.05035 0.500006 6.15419 0.5 5.21995V5.06174L0.513672 4.75217C0.65184 3.22156 1.80656 1.95674 3.34668 1.69944C4.43427 1.51817 5.54113 1.87338 6.31836 2.65061L7 3.33225L7.68164 2.65061Z" fill="var(--fill-0, white)" fill-opacity="0.6" stroke="var(--stroke-0, #1B2851)"/>
</g>
</svg>
