<svg preserveAspectRatio="none" width="100%" height="100%" overflow="visible" style="display: block;" viewBox="0 0 14 14" fill="none" xmlns="http://www.w3.org/2000/svg">
<g id="Frame">
<g clip-path="url(#clip0_0_61)">
<path id="Vector" d="M7 0.5C8.72391 0.5 10.3777 1.18433 11.5967 2.40332C12.8157 3.62231 13.5 5.27609 13.5 7L13.4922 7.32227C13.4125 8.92884 12.7395 10.4539 11.5967 11.5967C10.3777 12.8157 8.72391 13.5 7 13.5L6.67773 13.4922C5.07116 13.4125 3.54613 12.7395 2.40332 11.5967C1.18433 10.3777 0.5 8.72391 0.5 7C0.5 5.27609 1.18433 3.62231 2.40332 2.40332C3.62231 1.18433 5.27609 0.5 7 0.5ZM7 2.125C6.36019 2.125 5.84375 2.64144 5.84375 3.28125V7C5.84375 7.3862 6.03677 7.7465 6.35742 7.96191L6.35938 7.96289L8.98242 9.71094V9.71191C9.51556 10.0704 10.2337 9.92193 10.5879 9.39062C10.9218 8.88951 10.8144 8.23007 10.3613 7.85742L10.2656 7.78711L8.15625 6.38086V3.28125C8.15625 2.64144 7.63981 2.125 7 2.125Z" fill="var(--fill-0, white)" fill-opacity="0.6" stroke="var(--stroke-0, #1B2851)"/>
</g>
</g>
<defs>
<clipPath id="clip0_0_61">
<path d="M0 0H14V14H0V0Z" fill="white"/>
</clipPath>
</defs>
</svg>
