<svg preserveAspectRatio="none" width="100%" height="100%" overflow="visible" style="display: block;" viewBox="0 0 20 19" fill="none" xmlns="http://www.w3.org/2000/svg">
<g id="Vector">
<path d="M3.66667 8.25H0V18.3333H3.66667V8.25Z" fill="var(--fill-0, #414C75)"/>
<path d="M13.75 1.14583C14.3458 0.449167 15.2717 0 16.225 0C17.9208 0 19.25 1.32917 19.25 3.025C19.25 5.10583 16.5825 7.51667 13.75 10.0833C10.9175 7.5075 8.25 5.09667 8.25 3.025C8.25 1.32917 9.57917 0 11.275 0C12.2283 0 13.1542 0.449167 13.75 1.14583Z" fill="var(--fill-0, #414C75)"/>
<path d="M17.4167 13.75H11L9.08417 13.0808L9.38667 12.2192L11 12.8333H13.585C14.1808 12.8333 14.6667 12.3475 14.6667 11.7517C14.6667 11.3025 14.3825 10.8992 13.9608 10.7342L7.30583 8.25H5.5V16.5183L11.9167 18.3333L19.2592 15.5833C19.25 14.575 18.4342 13.75 17.4167 13.75Z" fill="var(--fill-0, #414C75)"/>
</g>
</svg>
