<svg preserveAspectRatio="none" width="100%" height="100%" overflow="visible" style="display: block;" viewBox="0 0 23 21" fill="none" xmlns="http://www.w3.org/2000/svg">
<g id="Vector">
<path d="M9.40492 13.8724L10.727 12.5503C8.18526 10.2879 6.51871 8.76103 6.51871 7.30862C6.51871 6.33103 7.26354 5.58621 8.24112 5.58621C9.27457 5.58621 9.67492 6.19138 10.7363 7.44828H11.6022C12.6449 6.22862 13.0266 5.58621 14.0973 5.58621C14.9073 5.58621 15.5404 6.08897 15.7453 6.81517C16.0711 6.77793 16.3784 6.75931 16.6763 6.75931C17.0115 6.75931 17.328 6.78724 17.6353 6.83379C17.4118 5.05552 15.9501 3.72414 14.1066 3.72414C13.9949 3.72414 13.8925 3.75207 13.7808 3.76138C13.8925 3.45414 13.967 3.13759 13.967 2.7931C13.967 1.24759 12.7194 0 11.1739 0C9.62836 0 8.38078 1.24759 8.38078 2.7931C8.38078 3.13759 8.45526 3.45414 8.56698 3.76138C8.45526 3.75207 8.35285 3.72414 8.24112 3.72414C6.23009 3.72414 4.65664 5.29759 4.65664 7.30862C4.65664 9.56172 6.55595 11.3214 9.40492 13.8724Z" fill="var(--fill-0, #3498DB)"/>
<path d="M20.9497 14.189C20.6518 14.0214 20.3353 13.919 20.0187 13.8631C20.0839 13.77 20.1584 13.6955 20.2142 13.6024C21.2197 11.8614 20.6425 9.71069 18.9015 8.70517C16.9556 7.57862 14.4697 8.34207 10.848 9.5431L11.3322 11.3493C14.5628 10.2879 16.7228 9.59897 17.9797 10.3252C18.827 10.8186 19.097 11.8241 18.6128 12.6807C18.0915 13.5745 17.3746 13.6117 15.7546 13.9097L15.317 14.6638C15.857 16.1721 16.2201 16.8331 15.6801 17.7548C15.1866 18.6021 14.1811 18.8721 13.3246 18.3879C13.2687 18.36 13.2222 18.3041 13.1663 18.2669C12.887 18.8907 12.5704 19.4214 12.2073 19.8776C12.2725 19.9148 12.3284 19.9614 12.3935 20.0079C14.1346 21.0134 16.2853 20.4362 17.2908 18.6952C17.3466 18.6021 17.3746 18.4997 17.4211 18.3972C17.626 18.6486 17.868 18.8721 18.166 19.0397C19.4973 19.8124 21.2104 19.3562 21.9832 18.0155C22.756 16.6748 22.2811 14.9524 20.9497 14.189Z" fill="var(--fill-0, #3498DB)"/>
<path d="M11.4718 12.1128C10.7828 15.4459 10.2894 17.6524 9.0325 18.3786C8.18526 18.8721 7.17043 18.6021 6.67698 17.7455C6.1556 16.8517 6.49078 16.2 7.04009 14.6545L6.61181 13.9003C5.02905 13.6117 4.28423 13.5931 3.75354 12.6714C3.26009 11.8241 3.53009 10.8093 4.38664 10.3159C4.47043 10.2693 4.56354 10.2414 4.65664 10.2134C4.33078 9.69207 4.06078 9.12414 3.89319 8.49103C3.74423 8.55621 3.59526 8.62138 3.44629 8.70517C1.70526 9.71069 1.12802 11.8614 2.13354 13.6024C2.1894 13.6955 2.26388 13.77 2.32905 13.8631C2.0125 13.919 1.69595 14.0214 1.39802 14.189C0.0666388 14.9617 -0.398878 16.6655 0.37388 18.0062C1.14664 19.3469 2.85043 19.8031 4.19112 19.0303C4.48905 18.8628 4.73112 18.6393 4.93595 18.3879C4.9825 18.4903 5.01043 18.5928 5.06629 18.6859C6.07181 20.4269 8.2225 21.0041 9.96354 19.9986C11.9094 18.8721 12.4866 16.3397 13.2687 12.6062L11.4718 12.1128Z" fill="var(--fill-0, #3498DB)"/>
</g>
</svg>
