<svg width="1439" height="1306" viewBox="0 0 1439 1306" fill="none" xmlns="http://www.w3.org/2000/svg">
<g opacity="0.53">
<path d="M293.891 2163.22C218.893 2058.85 67.5801 1980.75 -60.9006 1931.27C-103.933 1914.71 -149.704 1897.86 -188.678 1867.3C-236.314 1829.94 -259.887 1782.41 -265.332 1745.05C-275.551 1676.89 -236.963 1628.71 -164.901 1619.65C-102.606 1611.82 -19.5071 1631.52 41.1993 1621.81C142.771 1605.53 160.595 1511.57 151.035 1415.12C144.265 1346.88 130.023 1267.77 190.42 1244.09C232.815 1227.36 304.466 1243.63 373.813 1272.42C407.308 1286.33 442.251 1303.42 472.687 1308.01C490.664 1310.62 505.691 1308.49 519.231 1305.07C643.014 1273.96 659.68 1143.01 790.47 1119.83C878.862 1104.21 1007.96 1141.87 1130.98 1201.8C1254 1261.72 1372.97 1342.44 1488.62 1423.79C1570.83 1481.61 1657.45 1545.33 1706.36 1615.89C1757.82 1690.32 1754.66 1757.97 1715.8 1795.52C1676.93 1833.07 1607.23 1844.28 1532.09 1845.11C1438.17 1846.17 1329.39 1832.89 1270.14 1871.05C1229.81 1897.04 1217.47 1944.16 1198.81 1986.07C1167.65 2056.13 1117.34 2113.61 1065.96 2169.88C1016.74 2223.72 965.846 2277.12 893.135 2311.39C841.654 2335.66 772.374 2336.7 714.817 2353.74C677.293 2364.84 654.986 2389.18 612.004 2394.77C559.041 2401.68 480.986 2388.58 412.411 2332.77C347.113 2279.64 333.799 2218.71 293.891 2163.22Z" fill="#EFF4FB"/>
<path d="M-270.109 154.224C-345.107 49.846 -496.42 -28.2482 -624.901 -77.728C-667.933 -94.287 -713.704 -111.141 -752.678 -141.698C-800.314 -179.058 -823.887 -226.59 -829.332 -263.953C-839.551 -332.109 -800.963 -380.29 -728.901 -389.346C-666.606 -397.175 -583.507 -377.481 -522.801 -387.185C-421.229 -403.474 -403.405 -497.428 -412.965 -593.88C-419.735 -662.122 -433.977 -741.23 -373.58 -764.914C-331.185 -781.638 -259.534 -765.369 -190.187 -736.58C-156.692 -722.674 -121.749 -705.584 -91.3134 -700.993C-73.3357 -698.38 -58.3085 -700.51 -44.7692 -703.931C79.0145 -735.037 95.6799 -865.992 226.47 -889.168C314.862 -904.795 443.961 -867.126 566.979 -807.203C689.996 -747.28 808.971 -666.564 924.62 -585.214C1006.83 -527.393 1093.45 -463.674 1142.36 -393.113C1193.82 -318.679 1190.66 -251.031 1151.8 -213.483C1112.93 -175.935 1043.23 -164.723 968.086 -163.887C874.17 -162.83 765.39 -176.115 706.145 -137.95C665.813 -111.96 653.467 -64.8352 634.809 -22.9337C603.651 47.1276 553.339 104.613 501.962 160.878C452.738 214.717 401.846 268.117 329.135 302.395C277.654 326.662 208.374 327.701 150.817 344.736C113.293 355.838 90.9858 380.18 48.0035 385.771C-4.95856 392.675 -83.0144 379.585 -151.589 323.768C-216.887 270.643 -230.201 209.71 -270.109 154.224Z" fill="#EFF4FB"/>
</g>
</svg>
