<svg preserveAspectRatio="none" width="100%" height="100%" overflow="visible" style="display: block;" viewBox="0 0 14 14" fill="none" xmlns="http://www.w3.org/2000/svg">
<g id="Frame">
<g clip-path="url(#clip0_0_12)">
<path id="Vector" d="M5.03125 0C5.87617 0 6.5625 0.686328 6.5625 1.53125V12.4688C6.5625 13.3137 5.87617 14 5.03125 14C4.24102 14 3.59023 13.4012 3.5082 12.6301C3.36602 12.6684 3.21562 12.6875 3.0625 12.6875C2.09727 12.6875 1.3125 11.9027 1.3125 10.9375C1.3125 10.7352 1.34805 10.5383 1.41094 10.3578C0.585156 10.0461 0 9.24766 0 8.3125C0 7.44023 0.511328 6.68555 1.25234 6.33555C1.01445 6.0375 0.875 5.66016 0.875 5.25C0.875 4.41055 1.46563 3.71055 2.25313 3.53828C2.20938 3.38789 2.1875 3.22656 2.1875 3.0625C2.1875 2.24492 2.75078 1.55586 3.5082 1.36445C3.59023 0.598828 4.24102 0 5.03125 0ZM8.96875 0C9.75898 0 10.407 0.598828 10.4918 1.36445C11.252 1.55586 11.8125 2.24219 11.8125 3.0625C11.8125 3.22656 11.7906 3.38789 11.7469 3.53828C12.5344 3.70781 13.125 4.41055 13.125 5.25C13.125 5.66016 12.9855 6.0375 12.7477 6.33555C13.4887 6.68555 14 7.44023 14 8.3125C14 9.24766 13.4148 10.0461 12.5891 10.3578C12.652 10.5383 12.6875 10.7352 12.6875 10.9375C12.6875 11.9027 11.9027 12.6875 10.9375 12.6875C10.7844 12.6875 10.634 12.6684 10.4918 12.6301C10.4098 13.4012 9.75898 14 8.96875 14C8.12383 14 7.4375 13.3137 7.4375 12.4688V1.53125C7.4375 0.686328 8.12383 0 8.96875 0Z" fill="var(--fill-0, #1B2851)"/>
</g>
</g>
<defs>
<clipPath id="clip0_0_12">
<path d="M0 0H14V14H0V0Z" fill="white"/>
</clipPath>
</defs>
</svg>
