<svg preserveAspectRatio="none" width="100%" height="100%" overflow="visible" style="display: block;" viewBox="0 0 28 20" fill="none" xmlns="http://www.w3.org/2000/svg">
<g id="Vector">
<path d="M6.57356 11.133C7.75977 11.1578 8.85948 11.7509 9.60086 12.7888C10.5029 14.0615 11.998 14.8276 13.592 14.8276C15.1859 14.8276 16.681 14.0615 17.583 12.7764C18.3244 11.7385 19.4241 11.1454 20.6103 11.1207C19.7207 9.61322 16.1621 8.64943 13.592 8.64943C11.0342 8.64943 7.46322 9.61322 6.57356 11.133Z" fill="var(--fill-0, #3498DB)"/>
<path d="M3.7069 11.1207C5.75805 11.1207 7.41379 9.46494 7.41379 7.41379C7.41379 5.36264 5.75805 3.7069 3.7069 3.7069C1.65575 3.7069 0 5.36264 0 7.41379C0 9.46494 1.65575 11.1207 3.7069 11.1207Z" fill="var(--fill-0, #3498DB)"/>
<path d="M23.477 11.1207C25.5282 11.1207 27.1839 9.46494 27.1839 7.41379C27.1839 5.36264 25.5282 3.7069 23.477 3.7069C21.4259 3.7069 19.7701 5.36264 19.7701 7.41379C19.7701 9.46494 21.4259 11.1207 23.477 11.1207Z" fill="var(--fill-0, #3498DB)"/>
<path d="M13.592 7.41379C15.6431 7.41379 17.2989 5.75805 17.2989 3.7069C17.2989 1.65575 15.6431 0 13.592 0C11.5408 0 9.88506 1.65575 9.88506 3.7069C9.88506 5.75805 11.5408 7.41379 13.592 7.41379Z" fill="var(--fill-0, #3498DB)"/>
<path d="M24.7126 12.3563H20.6721C19.7207 12.3563 19.004 12.9124 18.5963 13.4931C18.5468 13.5672 16.9158 16.0632 13.592 16.0632C11.825 16.0632 9.84799 15.2724 8.58764 13.4931C8.10575 12.8135 7.35201 12.3563 6.51178 12.3563H2.47126C1.11207 12.3563 0 13.4684 0 14.8276V19.7701H8.64943V16.9776C10.0704 17.9661 11.7879 18.5345 13.592 18.5345C15.396 18.5345 17.1135 17.9661 18.5345 16.9776V19.7701H27.1839V14.8276C27.1839 13.4684 26.0718 12.3563 24.7126 12.3563Z" fill="var(--fill-0, #3498DB)"/>
</g>
</svg>
