<svg preserveAspectRatio="none" width="100%" height="100%" overflow="visible" style="display: block;" viewBox="0 0 33 17" fill="none" xmlns="http://www.w3.org/2000/svg">
<path id="Vector" d="M16.3103 9.17457C18.5258 9.17457 20.4831 9.70465 22.0733 10.3978C23.5413 11.0503 24.4655 12.5182 24.4655 14.1084V16.3103H8.15517V14.122C8.15517 12.5182 9.07943 11.0503 10.5474 10.4114C12.1376 9.70465 14.0949 9.17457 16.3103 9.17457ZM5.43678 9.51437C6.9319 9.51437 8.15517 8.29109 8.15517 6.79598C8.15517 5.30086 6.9319 4.07759 5.43678 4.07759C3.94167 4.07759 2.71839 5.30086 2.71839 6.79598C2.71839 8.29109 3.94167 9.51437 5.43678 9.51437ZM6.97267 11.0095C6.46977 10.9279 5.96687 10.8736 5.43678 10.8736C4.09118 10.8736 2.81353 11.159 1.65822 11.6619C0.652414 12.0968 0 13.0755 0 14.1764V16.3103H6.11638V14.122C6.11638 12.9939 6.42899 11.9337 6.97267 11.0095ZM27.1839 9.51437C28.679 9.51437 29.9023 8.29109 29.9023 6.79598C29.9023 5.30086 28.679 4.07759 27.1839 4.07759C25.6888 4.07759 24.4655 5.30086 24.4655 6.79598C24.4655 8.29109 25.6888 9.51437 27.1839 9.51437ZM32.6207 14.1764C32.6207 13.0755 31.9683 12.0968 30.9625 11.6619C29.8072 11.159 28.5295 10.8736 27.1839 10.8736C26.6538 10.8736 26.1509 10.9279 25.648 11.0095C26.1917 11.9337 26.5043 12.9939 26.5043 14.122V16.3103H32.6207V14.1764ZM16.3103 0C18.5666 0 20.3879 1.82132 20.3879 4.07759C20.3879 6.33385 18.5666 8.15517 16.3103 8.15517C14.0541 8.15517 12.2328 6.33385 12.2328 4.07759C12.2328 1.82132 14.0541 0 16.3103 0Z" fill="var(--fill-0, #414C75)"/>
</svg>
