<svg preserveAspectRatio="none" width="100%" height="100%" overflow="visible" style="display: block;" viewBox="0 0 18 14" fill="none" xmlns="http://www.w3.org/2000/svg">
<g id="Frame">
<g clip-path="url(#clip0_0_28)">
<path id="Vector" d="M1.96875 2.40625C1.96875 2.00014 2.13008 1.61066 2.41724 1.32349C2.70441 1.03633 3.09389 0.875 3.5 0.875C3.90611 0.875 4.29559 1.03633 4.58276 1.32349C4.86992 1.61066 5.03125 2.00014 5.03125 2.40625C5.03125 2.81236 4.86992 3.20184 4.58276 3.48901C4.29559 3.77617 3.90611 3.9375 3.5 3.9375C3.09389 3.9375 2.70441 3.77617 2.41724 3.48901C2.13008 3.20184 1.96875 2.81236 1.96875 2.40625ZM1.75 6.71836C1.47656 7.02461 1.3125 7.43203 1.3125 7.875C1.3125 8.31797 1.47656 8.72539 1.75 9.03164V6.71836ZM5.69844 5.37031C4.88633 6.08945 4.375 7.14219 4.375 8.3125C4.375 9.25039 4.70312 10.1117 5.25 10.7871V11.375C5.25 11.859 4.85898 12.25 4.375 12.25H2.625C2.14102 12.25 1.75 11.859 1.75 11.375V10.6422C0.716406 10.15 0 9.09727 0 7.875C0 6.18242 1.36992 4.8125 3.0625 4.8125H3.9375C4.59375 4.8125 5.20078 5.01758 5.69844 5.36758V5.37031ZM12.25 11.375V10.7871C12.7969 10.1117 13.125 9.25039 13.125 8.3125C13.125 7.14219 12.6137 6.08945 11.8016 5.36758C12.2992 5.01758 12.9062 4.8125 13.5625 4.8125H14.4375C16.1301 4.8125 17.5 6.18242 17.5 7.875C17.5 9.09727 16.7836 10.15 15.75 10.6422V11.375C15.75 11.859 15.359 12.25 14.875 12.25H13.125C12.641 12.25 12.25 11.859 12.25 11.375ZM12.4688 2.40625C12.4687 2.00014 12.6301 1.61066 12.9172 1.32349C13.2044 1.03633 13.5939 0.875 14 0.875C14.4061 0.875 14.7956 1.03633 15.0828 1.32349C15.3699 1.61066 15.5312 2.00014 15.5312 2.40625C15.5312 2.81236 15.3699 3.20184 15.0828 3.48901C14.7956 3.77617 14.4061 3.9375 14 3.9375C13.5939 3.9375 13.2044 3.77617 12.9172 3.48901C12.6301 3.20184 12.4688 2.81236 12.4688 2.40625ZM15.75 6.71836V9.03437C16.0234 8.72539 16.1875 8.3207 16.1875 7.87773C16.1875 7.43477 16.0234 7.02734 15.75 6.72109V6.71836ZM8.75 0.875C9.21413 0.875 9.65925 1.05937 9.98744 1.38756C10.3156 1.71575 10.5 2.16087 10.5 2.625C10.5 3.08913 10.3156 3.53425 9.98744 3.86244C9.65925 4.19063 9.21413 4.375 8.75 4.375C8.28587 4.375 7.84075 4.19063 7.51256 3.86244C7.18437 3.53425 7 3.08913 7 2.625C7 2.16087 7.18437 1.71575 7.51256 1.38756C7.84075 1.05937 8.28587 0.875 8.75 0.875ZM6.5625 8.3125C6.5625 8.75547 6.72656 9.16016 7 9.46914V7.15586C6.72656 7.46484 6.5625 7.86953 6.5625 8.3125ZM10.5 7.15586V9.47187C10.7734 9.16289 10.9375 8.7582 10.9375 8.31523C10.9375 7.87227 10.7734 7.46484 10.5 7.15859V7.15586ZM12.25 8.3125C12.25 9.53477 11.5336 10.5875 10.5 11.0797V12.25C10.5 12.734 10.109 13.125 9.625 13.125H7.875C7.39102 13.125 7 12.734 7 12.25V11.0797C5.96641 10.5875 5.25 9.53477 5.25 8.3125C5.25 6.61992 6.61992 5.25 8.3125 5.25H9.1875C10.8801 5.25 12.25 6.61992 12.25 8.3125Z" fill="var(--fill-0, #1B2851)"/>
</g>
</g>
<defs>
<clipPath id="clip0_0_28">
<path d="M0 0H17.5V14H0V0Z" fill="white"/>
</clipPath>
</defs>
</svg>
