<svg preserveAspectRatio="none" width="100%" height="100%" overflow="visible" style="display: block;" viewBox="0 0 27 25" fill="none" xmlns="http://www.w3.org/2000/svg">
<g id="Vector">
<path d="M11.2336 16.5698L12.8128 14.9907C9.77684 12.2884 7.78623 10.4646 7.78623 8.72974C7.78623 7.56207 8.67589 6.67241 9.84356 6.67241C11.078 6.67241 11.5561 7.39526 12.8239 8.89655H13.8581C15.1036 7.43974 15.5596 6.67241 16.8385 6.67241C17.806 6.67241 18.5622 7.27293 18.8068 8.14034C19.1961 8.09586 19.563 8.07362 19.9189 8.07362C20.3193 8.07362 20.6974 8.10698 21.0643 8.16259C20.7974 6.03853 19.0515 4.44828 16.8496 4.44828C16.7161 4.44828 16.5938 4.48164 16.4604 4.49276C16.5938 4.12578 16.6828 3.74767 16.6828 3.33621C16.6828 1.49017 15.1926 0 13.3466 0C11.5005 0 10.0104 1.49017 10.0104 3.33621C10.0104 3.74767 10.0993 4.12578 10.2328 4.49276C10.0993 4.48164 9.97701 4.44828 9.84356 4.44828C7.44149 4.44828 5.5621 6.32767 5.5621 8.72974C5.5621 11.4209 7.83072 13.5228 11.2336 16.5698Z" fill="var(--fill-0, #3498DB)"/>
<path d="M25.0233 16.9479C24.6674 16.7478 24.2893 16.6254 23.9112 16.5587C23.9891 16.4475 24.078 16.3585 24.1448 16.2473C25.3458 14.1678 24.6563 11.5989 22.5768 10.3978C20.2525 9.05224 17.2833 9.96414 12.9574 11.3987L13.5356 13.5561C17.3945 12.2884 19.9745 11.4654 21.4758 12.3328C22.4878 12.9222 22.8103 14.1233 22.232 15.1464C21.6093 16.214 20.753 16.2584 18.818 16.6143L18.2953 17.5151C18.9403 19.3166 19.374 20.1062 18.729 21.2072C18.1396 22.2191 16.9386 22.5416 15.9155 21.9634C15.8487 21.93 15.7931 21.8633 15.7264 21.8188C15.3928 22.5639 15.0147 23.1978 14.581 23.7427C14.6588 23.7872 14.7255 23.8428 14.8034 23.8984C16.883 25.0994 19.4518 24.4099 20.6529 22.3303C20.7196 22.2191 20.753 22.0968 20.8086 21.9745C21.0532 22.2747 21.3424 22.5416 21.6982 22.7418C23.2885 23.6648 25.3347 23.1199 26.2577 21.5185C27.1807 19.9172 26.6136 17.8598 25.0233 16.9479Z" fill="var(--fill-0, #3498DB)"/>
<path d="M13.7024 14.468C12.8795 18.4492 12.2901 21.0848 10.7888 21.9522C9.77684 22.5416 8.56468 22.2191 7.97529 21.196C7.35253 20.1284 7.75287 19.35 8.40899 17.504L7.89744 16.6032C6.00692 16.2584 5.11727 16.2362 4.48339 15.1353C3.89399 14.1233 4.21649 12.9111 5.2396 12.3217C5.33968 12.2661 5.45089 12.2328 5.5621 12.1994C5.17287 11.5766 4.85037 10.8983 4.6502 10.1421C4.47227 10.2199 4.29434 10.2978 4.11641 10.3978C2.03684 11.5989 1.34735 14.1678 2.54839 16.2473C2.61511 16.3585 2.70408 16.4475 2.78192 16.5587C2.40382 16.6254 2.02572 16.7478 1.66986 16.9479C0.0795964 17.8709 -0.476438 19.906 0.446579 21.5074C1.3696 23.1088 3.40468 23.6537 5.00606 22.7307C5.36192 22.5305 5.65106 22.2636 5.89572 21.9634C5.95132 22.0857 5.98468 22.208 6.05141 22.3192C7.25244 24.3988 9.82132 25.0883 11.9009 23.8872C14.2251 22.5416 14.9146 19.5168 15.8487 15.0574L13.7024 14.468Z" fill="var(--fill-0, #3498DB)"/>
</g>
</svg>
