<svg preserveAspectRatio="none" width="100%" height="100%" overflow="visible" style="display: block;" viewBox="0 0 23 22" fill="none" xmlns="http://www.w3.org/2000/svg">
<g id="Vector">
<path d="M4.37963 9.85417H0V21.8982H4.37963V9.85417Z" fill="var(--fill-0, #414C75)"/>
<path d="M16.4236 1.36863C17.1353 0.536505 18.2412 0 19.3799 0C21.4054 0 22.9931 1.58762 22.9931 3.6132C22.9931 6.09864 19.8069 8.97824 16.4236 12.044C13.0403 8.96729 9.85417 6.08769 9.85417 3.6132C9.85417 1.58762 11.4418 0 13.4674 0C14.6061 0 15.7119 0.536505 16.4236 1.36863Z" fill="var(--fill-0, #414C75)"/>
<path d="M20.8032 16.4236H13.1389L10.8505 15.6243L11.2119 14.5951L13.1389 15.3287H16.2265C16.9382 15.3287 17.5185 14.7484 17.5185 14.0367C17.5185 13.5002 17.1791 13.0185 16.6754 12.8214L8.72641 9.85417H6.56945V19.7302L14.2338 21.8982L23.004 18.6134C22.9931 17.409 22.0186 16.4236 20.8032 16.4236Z" fill="var(--fill-0, #414C75)"/>
</g>
</svg>
